<?xml version="1.0" encoding="iso-8859-1"?>
<!-- Generator: Adobe Illustrator 16.0.0, SVG Export Plug-In . SVG Version: 6.00 Build 0)  -->
<!DOCTYPE svg PUBLIC "-//W3C//DTD SVG 1.1//EN" "http://www.w3.org/Graphics/SVG/1.1/DTD/svg11.dtd">
<svg xmlns="http://www.w3.org/2000/svg" xmlns:xlink="http://www.w3.org/1999/xlink" version="1.1" id="Capa_1" x="0px" y="0px" width="512px" height="512px" viewBox="0 0 800 800" style="enable-background:new 0 0 800 800;" xml:space="preserve">
<g>
	<path d="M84.954,84.755C84.954,37.934,122.845,0,169.61,0c46.722,0,84.59,37.934,84.59,84.755c0,46.81-37.869,84.722-84.59,84.722   C122.845,169.477,84.954,131.564,84.954,84.755z M414.244,289.813c-8.528-14.226-26.995-18.773-41.166-10.245l-10.504,6.446   c-13.65,8.431-27.69,17.121-41.515,22.114c-0.5-1.531-0.999-3.126-1.476-4.678c-2.821-9.104-5.968-18.11-9.635-26.932   c-7.833-18.923-18.099-37.043-31.9-52.278c-14.778-16.308-35.48-30.968-56.422-38.043c-13.389-4.524-27.473-7.096-41.579-8.051   l21.831,229.645l-31.509,37.023l-36.045-37.023l27.387-229.959c-15.517,0.521-31.098,2.984-45.789,8.105   c-6.033,2.104-11.936,4.666-17.491,7.824c-10.331,5.869-19.575,12.825-28.494,20.734c-42.188,37.437-65.06,102.432-69.9,198.667   c-0.824,16.57,11.914,30.686,28.451,31.511c0.521,0.032,1.042,0.043,1.54,0.043c15.885,0,29.123-12.479,29.947-28.537   c3.255-65.006,16.102-113.478,37.239-142.416c-1.519,30.143-4.188,84.353-6.554,139.932c-0.282,1.433-0.65,2.831-0.759,4.328   L66.031,755.926c-1.497,21.462,14.627,40.071,36.067,41.59c0.934,0.064,1.845,0.098,2.779,0.098   c20.225,0,37.303-15.68,38.758-36.197l18.792-266.069c2.886-0.781,5.729-1.529,8.204-1.529c2.908,0,5.686,0.53,8.507,0.879   l17.382,268.891C197.843,784.18,214.943,800,235.277,800c0.846,0,1.693-0.021,2.561-0.064   c21.419-1.398,37.673-19.922,36.284-41.396l-20.638-319.291c-0.13-2.171-0.564-4.243-1.042-6.306   c-1.758-47.809-7.096-117.458-10.329-156.978c7.769,11.936,14.583,27.256,20.637,46.768c3.928,12.63,14.93,47.98,50.237,47.98   c4.884,0,10.222-0.672,16.081-2.181c24.326-6.229,45.94-19.607,65.039-31.392l9.917-6.088   C418.216,322.493,422.795,304.036,414.244,289.813z M613.285,117.849c-32.529,0-58.853-26.366-58.853-58.919   c0-32.563,26.322-58.93,58.853-58.93c32.529,0,58.853,26.367,58.853,58.93C672.138,91.482,645.815,117.849,613.285,117.849z    M450.247,230.219l6.9,4.231c13.279,8.192,28.32,17.481,45.246,21.833c4.058,1.052,7.769,1.497,11.176,1.497   c24.545,0,32.205-24.566,34.938-33.344c4.21-13.574,8.94-24.23,14.346-32.53c-2.259,27.484-5.97,75.899-7.186,109.156   c-0.325,1.444-0.628,2.877-0.716,4.385l-14.343,222.05c-0.979,14.92,10.328,27.809,25.216,28.786   c0.585,0.031,1.192,0.043,1.778,0.043c14.129,0,26.021-11.014,26.953-25.336l12.086-187.002c1.953-0.238,3.907-0.586,5.927-0.586   c1.714,0,3.688,0.521,5.706,1.063l13.063,185.027c1.021,14.258,12.892,25.173,26.931,25.173c0.675,0,1.304-0.021,1.954-0.064   c14.908-1.062,26.128-13.998,25.086-28.929l-16.601-234.994c-0.065-1.04-0.348-1.995-0.543-3.005   c-1.649-38.64-3.493-76.334-4.559-97.299c14.691,20.128,23.634,53.819,25.892,99.023c0.585,11.177,9.808,19.856,20.832,19.856   c0.347,0,0.715-0.01,1.084-0.032c11.479-0.564,20.334-10.395,19.77-21.908c-3.341-66.937-19.248-112.13-48.588-138.16   c-6.229-5.502-12.651-10.342-19.835-14.41c-3.861-2.214-7.964-3.993-12.15-5.438c-10.224-3.58-21.051-5.283-31.857-5.642   l19.053,159.906l-25.062,25.75l-21.919-25.75l15.212-159.689c-9.829,0.663-19.64,2.442-28.928,5.61   c-14.562,4.904-28.947,15.104-39.257,26.433c-9.593,10.602-16.731,23.198-22.2,36.35c-2.519,6.152-4.709,12.413-6.703,18.75   c-0.284,1.074-0.652,2.181-0.979,3.233c-9.658-3.451-19.379-9.506-28.884-15.375l-7.314-4.481   c-9.852-5.925-22.676-2.768-28.645,7.14C437.227,211.415,440.373,224.263,450.247,230.219z M756.12,326.259l-317.939,1.813   c-18.271,4.991-31.659,20.605-31.659,39.333c0,22.731,19.614,41.114,43.877,41.114h25.824v206.337H89.468v92.273H0.017V800h746.208   l0.694-391.481h9.2c24.219,0,43.88-18.382,43.88-41.113C800,344.683,780.339,326.259,756.12,326.259z" fill="#FFFFFF"/>
</g>
<g>
</g>
<g>
</g>
<g>
</g>
<g>
</g>
<g>
</g>
<g>
</g>
<g>
</g>
<g>
</g>
<g>
</g>
<g>
</g>
<g>
</g>
<g>
</g>
<g>
</g>
<g>
</g>
<g>
</g>
</svg>
