<?xml version="1.0" encoding="UTF-8"?>
<svg width="24px" height="24px" viewBox="0 0 24 24" version="1.1" xmlns="http://www.w3.org/2000/svg" xmlns:xlink="http://www.w3.org/1999/xlink">
    <!-- Generator: Sketch 47 (45396) - http://www.bohemiancoding.com/sketch -->
    <title>Icons/SideBar/Chair</title>
    <desc>Created with Sketch.</desc>
    <defs></defs>
    <g id="Symbols" stroke="none" stroke-width="1" fill="none" fill-rule="evenodd">
        <g id="Icons/SideBar/Chair">
            <g>
                <path d="M4,18 L4,21 L7,21 L7,18 L17,18 L17,21 L20,21 L20,15 L4,15 L4,18 Z M19,10 L22,10 L22,13 L19,13 L19,10 Z M2,10 L5,10 L5,13 L2,13 L2,10 Z M17,13 L7,13 L7,5 C7,3.9 7.9,3 9,3 L15,3 C16.1,3 17,3.9 17,5 L17,13 Z" id="Shape" fill="#FFFFFF" fill-rule="nonzero"></path>
                <polygon id="a" points="0 0 24 0 24 24 0 24"></polygon>
            </g>
        </g>
    </g>
</svg>