<?xml version="1.0" encoding="UTF-8"?>
<svg width="162px" height="56px" viewBox="0 0 162 56" version="1.1" xmlns="http://www.w3.org/2000/svg" xmlns:xlink="http://www.w3.org/1999/xlink">
    <!-- Generator: Sketch 43.1 (39012) - http://www.bohemiancoding.com/sketch -->
    <title>Logos / Color / Hor@1x</title>
    <desc>Created with Sketch.</desc>
    <defs></defs>
    <g id="Symbols" stroke="none" stroke-width="1" fill="none" fill-rule="evenodd">
        <g id="Logos-/-Color-/-Hor">
            <g id="Logos-/-White-/-Hor">
                <polygon id="Fill-1" fill-opacity="0.87" fill="#000000" points="95.4072 6.9067 95.4072 12.4337 103.8912 12.4337 104.8672 16.3357 95.4072 16.3357 95.4072 21.8617 106.8172 21.8617 106.8172 25.7627 91.5062 25.7627 91.5062 3.0077 106.8172 3.0077 106.8172 6.9067"></polygon>
                <path d="M124.958,19.2602 C124.958,20.3222 124.783,21.2822 124.437,22.1372 C124.091,22.9932 123.597,23.7202 122.958,24.3162 C122.318,24.9112 121.544,25.3712 120.634,25.6972 C119.724,26.0232 118.704,26.1852 117.578,26.1852 C115.778,26.1852 114.175,25.8982 112.767,25.3232 C111.357,24.7492 110.198,24.0932 109.288,23.3572 L111.986,20.6582 C112.702,21.3082 113.503,21.8072 114.392,22.1542 C114.934,22.3712 115.442,22.5122 115.92,22.5762 C116.396,22.6422 116.786,22.6742 117.09,22.6742 C117.653,22.6742 118.169,22.6042 118.635,22.4632 C119.101,22.3232 119.507,22.1332 119.854,21.8942 C120.59,21.3532 120.959,20.6372 120.959,19.7482 C120.959,19.2072 120.765,18.7192 120.373,18.2842 C120.07,17.9392 119.68,17.6562 119.203,17.4412 C118.813,17.2242 118.401,17.0502 117.968,16.9202 C117.534,16.7902 117.145,16.6712 116.798,16.5632 C116.688,16.5192 116.592,16.4922 116.506,16.4822 C116.418,16.4712 116.343,16.4442 116.277,16.4002 C116.234,16.4002 116.169,16.3782 116.083,16.3352 C115.628,16.2042 114.972,15.9772 114.115,15.6532 C113.26,15.3272 112.409,14.8832 111.564,14.3202 C109.592,12.9982 108.605,11.3722 108.605,9.4432 C108.605,8.1642 108.828,7.0862 109.271,6.2082 C109.717,5.3302 110.296,4.6152 111.011,4.0632 C111.727,3.5102 112.523,3.1142 113.4,2.8762 C114.278,2.6382 115.14,2.5192 115.985,2.5192 C117.546,2.5192 118.856,2.7022 119.919,3.0722 C120.98,3.4402 121.825,3.8092 122.454,4.1772 C122.779,4.3712 123.056,4.5612 123.283,4.7452 C123.511,4.9302 123.711,5.0982 123.885,5.2492 L121.121,8.0442 C120.536,7.4602 119.939,7.0162 119.333,6.7122 C118.423,6.2792 117.47,6.0632 116.473,6.0632 C116.039,6.0632 115.605,6.1162 115.172,6.2252 C114.738,6.3332 114.359,6.4742 114.034,6.6472 C113.081,7.2332 112.604,8.0022 112.604,8.9552 C112.604,9.5402 112.8,10.0392 113.189,10.4502 C113.471,10.7762 113.861,11.0682 114.359,11.3282 C114.77,11.5452 115.205,11.7182 115.66,11.8482 C116.115,11.9792 116.538,12.0982 116.928,12.2062 L117.317,12.3042 C117.426,12.3472 117.632,12.4122 117.936,12.4992 C118.239,12.5852 118.596,12.7152 119.009,12.8892 C119.42,13.0632 119.87,13.2692 120.357,13.5072 C120.846,13.7442 121.327,14.0272 121.805,14.3522 C123.905,15.7392 124.958,17.3752 124.958,19.2602" id="Fill-2" fill-opacity="0.87" fill="#000000"></path>
                <polygon id="Fill-4" fill-opacity="0.87" fill="#000000" points="139.4551 25.8276 130.8091 17.1806 130.8091 25.7636 126.9071 25.7636 126.9071 3.0396 130.8091 3.0396 130.8091 11.6536 139.3911 3.0716 144.9181 3.0716 133.5721 14.4176 144.9821 25.8276"></polygon>
                <path d="M47.0938,-0.0005 C51.8948,-0.0005 55.7848,3.8915 55.7848,8.6905 L55.7848,47.0945 C55.7848,51.8945 51.8948,55.7855 47.0938,55.7855 L8.6918,55.7855 C3.8908,55.7855 -0.0002,51.8945 -0.0002,47.0945 L-0.0002,18.4425 L15.5718,20.6065 L18.6468,42.7335 L21.7228,20.6065 L43.8518,17.5305 L21.7228,14.4565 L19.7128,-0.0005 L47.0938,-0.0005 Z M15.5713,14.4565 L0.0003,16.6195 L0.0003,8.6905 C0.0003,3.8915 3.8903,-0.0005 8.6913,-0.0005 L17.5803,-0.0005 L15.5713,14.4565 Z" id="Combined-Shape" fill="#FF8026"></path>
                <polygon id="Fill-11" fill-opacity="0.87" fill="#000000" points="75.0879 53.9546 67.9369 31.1986 72.0319 31.1986 77.0709 47.2256 81.7209 31.1986 85.8169 31.1986 90.8559 47.2256 95.5039 31.1986 99.5669 31.1986 92.9359 53.9546 88.8719 53.9546 83.8329 37.9286 79.1509 53.9546"></polygon>
                <path d="M111.0098,34.6118 C109.9478,34.6118 108.9408,34.8128 107.9878,35.2138 C107.0328,35.6148 106.1768,36.1938 105.4188,36.9528 C104.6598,37.7118 104.0798,38.5668 103.6798,39.5208 C103.2788,40.4738 103.0788,41.4818 103.0788,42.5448 C103.0788,43.6058 103.2788,44.6198 103.6798,45.5838 C104.0798,46.5488 104.6598,47.4098 105.4188,48.1688 C106.1768,48.9268 107.0328,49.5018 107.9878,49.8908 C108.9408,50.2818 109.9478,50.4758 111.0098,50.4758 C112.0718,50.4758 113.0848,50.2818 114.0498,49.8908 C115.0148,49.5018 115.8758,48.9268 116.6348,48.1688 C117.3928,47.4098 117.9668,46.5488 118.3588,45.5838 C118.7478,44.6198 118.9428,43.6058 118.9428,42.5448 C118.9428,41.4818 118.7478,40.4738 118.3588,39.5208 C117.9668,38.5668 117.3928,37.7118 116.6348,36.9528 C115.8758,36.1938 115.0148,35.6148 114.0498,35.2138 C113.0848,34.8128 112.0718,34.6118 111.0098,34.6118 M111.0098,30.7118 C112.6358,30.7118 114.1688,31.0198 115.6108,31.6368 C117.0518,32.2558 118.3088,33.0998 119.3818,34.1738 C120.4548,35.2458 121.2988,36.5028 121.9168,37.9448 C122.5348,39.3848 122.8438,40.9198 122.8438,42.5448 C122.8438,44.1698 122.5348,45.7028 121.9168,47.1438 C121.2988,48.5858 120.4548,49.8418 119.3818,50.9148 C118.3088,51.9878 117.0518,52.8338 115.6108,53.4508 C114.1688,54.0678 112.6358,54.3778 111.0098,54.3778 C109.3858,54.3778 107.8518,54.0678 106.4108,53.4508 C104.9688,52.8338 103.7118,51.9878 102.6398,50.9148 C101.5668,49.8418 100.7218,48.5858 100.1048,47.1438 C99.4868,45.7028 99.1778,44.1698 99.1778,42.5448 C99.1778,40.9198 99.4868,39.3848 100.1048,37.9448 C100.7218,36.5028 101.5668,35.2458 102.6398,34.1738 C103.7118,33.0998 104.9688,32.2558 106.4108,31.6368 C107.8518,31.0198 109.3858,30.7118 111.0098,30.7118" id="Fill-13" fill-opacity="0.87" fill="#000000"></path>
                <polygon id="Fill-15" fill-opacity="0.87" fill="#000000" points="156.1318 54.019 147.4858 45.373 147.4858 53.955 143.5838 53.955 143.5838 31.231 147.4858 31.231 147.4858 39.845 156.0678 31.263 161.5948 31.263 150.2488 42.609 161.6588 54.019"></polygon>
                <path d="M85.0859,17.2612 C84.7069,18.1612 84.1699,18.9682 83.4769,19.6832 C82.7619,20.3772 81.9489,20.9132 81.0379,21.2922 C80.1279,21.6722 79.1739,21.8622 78.1779,21.8622 L75.7389,21.8622 L72.6509,21.8622 L72.6509,16.3352 L72.6509,6.9072 L78.1779,6.9072 C79.1739,6.9072 80.1279,7.0972 81.0379,7.4762 C81.9489,7.8552 82.7619,8.3922 83.4769,9.0852 C84.1699,9.8002 84.7069,10.6142 85.0859,11.5242 C85.4649,12.4342 85.6549,13.3882 85.6549,14.3842 C85.6549,15.4042 85.4649,16.3632 85.0859,17.2612 M88.6619,9.9632 C88.0649,8.5762 87.2529,7.3682 86.2239,6.3382 C85.1939,5.3092 83.9859,4.4962 82.5999,3.9002 C81.2119,3.3042 79.7379,3.0072 78.1779,3.0072 L68.7499,3.0072 L68.7499,25.7632 L71.5949,25.7632 L72.6509,25.7632 L74.1469,25.7632 L75.7389,25.7632 L78.1779,25.7632 C79.7379,25.7632 81.2119,25.4652 82.5999,24.8682 C83.9859,24.2722 85.1939,23.4602 86.2239,22.4302 C87.2529,21.4022 88.0649,20.1932 88.6619,18.8062 C89.2579,17.4192 89.5559,15.9452 89.5559,14.3842 C89.5559,12.8242 89.2579,11.3512 88.6619,9.9632" id="Fill-17" fill-opacity="0.87" fill="#000000"></path>
                <path d="M136.335,42.3813 C135.49,43.2273 134.482,43.6493 133.312,43.6493 L132.327,43.6493 L131.621,43.6493 L128.695,43.6493 L128.695,37.2453 L128.695,35.1003 L133.312,35.1003 C134.482,35.1003 135.49,35.5223 136.335,36.3673 C136.726,36.7573 137.028,37.2123 137.245,37.7333 C137.462,38.2533 137.57,38.7953 137.57,39.3583 C137.57,39.9223 137.462,40.4633 137.245,40.9843 C137.028,41.5033 136.726,41.9703 136.335,42.3813 M138.725,45.4853 C139.299,44.9773 139.786,44.4073 140.188,43.7783 C140.588,43.1513 140.902,42.4623 141.13,41.7153 C141.357,40.9683 141.471,40.1823 141.471,39.3583 C141.471,38.2323 141.255,37.1753 140.821,36.1893 C140.388,35.2023 139.802,34.3413 139.065,33.6043 C138.328,32.8673 137.467,32.2813 136.481,31.8493 C135.495,31.4153 134.439,31.1983 133.312,31.1983 L124.795,31.1983 L124.795,37.2453 L124.795,47.5503 L124.795,53.9543 L128.695,53.9543 L128.695,47.5503 L130.028,47.5503 L132.327,47.5503 L132.694,47.5503 L136.823,53.9543 L141.471,53.9543 L136.823,46.7373 C137.516,46.4123 138.15,45.9953 138.725,45.4853" id="Fill-19" fill-opacity="0.87" fill="#000000"></path>
                <polygon id="Fill-21" fill="#FF8026" points="156.0654 12.4487 154.3544 12.4487 154.3544 15.3577 152.3004 15.3577 152.3004 12.4487 146.7554 12.4487 146.7554 10.6857 151.6674 3.3777 154.1494 3.3777 149.4254 10.3947 152.3004 10.3947 152.3004 8.0327 154.3544 8.0327 154.3544 10.3947 156.0654 10.3947"></polygon>
            </g>
        </g>
    </g>
</svg>